<svg width="38" height="35" fill="none" xmlns="http://www.w3.org/2000/svg"><mask id="a" style="mask-type:alpha" maskUnits="userSpaceOnUse" x="0" y="0" width="38" height="35"><path d="M36.262 8.475a4.543 4.543 0 00-3.185-3.227C30.267 4.485 19 4.485 19 4.485s-11.267 0-14.077.763a4.542 4.542 0 00-3.185 3.227C.985 11.32.985 17.26.985 17.26s0 5.939.753 8.786c.414 1.57 1.635 2.755 3.185 3.175 2.81.763 14.077.763 14.077.763s11.267 0 14.077-.763c1.55-.42 2.77-1.605 3.185-3.175.753-2.847.753-8.786.753-8.786s0-5.94-.753-8.786zM15.315 22.653V11.868l9.417 5.393-9.417 5.392z" fill="#000"/></mask><g mask="url(#a)"><path fill="url(#paint0_linear_7_348)" d="M0-2.765h39v39H0z"/></g><defs><linearGradient id="paint0_linear_7_348" x1="-4" y1="45.735" x2="41.5" y2="-8.765" gradientUnits="userSpaceOnUse"><stop stop-color="#002EA6"/><stop offset="1" stop-color="#00A0E3"/></linearGradient></defs></svg>