<svg width="26" height="30" fill="none" xmlns="http://www.w3.org/2000/svg"><mask id="a" style="mask-type:alpha" maskUnits="userSpaceOnUse" x="0" y="0" width="26" height="30"><g clip-path="url(#clip0_7_353)"><path d="M13.006 8.221c-3.691 0-6.669 2.906-6.669 6.508 0 3.603 2.978 6.508 6.669 6.508 3.69 0 6.668-2.905 6.668-6.508 0-3.602-2.977-6.508-6.668-6.508zm0 10.74c-2.386 0-4.335-1.898-4.335-4.232 0-2.333 1.944-4.23 4.335-4.23 2.39 0 4.335 1.897 4.335 4.23 0 2.334-1.95 4.231-4.335 4.231zm8.496-11.006c0 .844-.696 1.518-1.555 1.518-.865 0-1.555-.68-1.555-1.518s.696-1.518 1.555-1.518 1.555.68 1.555 1.518zm4.417 1.54c-.099-2.033-.575-3.834-2.101-5.318-1.52-1.484-3.366-1.948-5.45-2.05-2.147-.12-8.583-.12-10.73 0-2.078.096-3.924.56-5.45 2.045C.662 5.656.192 7.457.087 9.49c-.122 2.096-.122 8.377 0 10.473.099 2.033.575 3.834 2.1 5.319 1.527 1.483 3.367 1.948 5.45 2.05 2.148.119 8.584.119 10.731 0 2.084-.096 3.93-.56 5.45-2.05 1.52-1.485 1.996-3.286 2.1-5.32.123-2.095.123-8.37 0-10.466zm-2.774 12.717c-.453 1.11-1.33 1.965-2.473 2.413-1.712.662-5.774.51-7.666.51-1.892 0-5.96.146-7.667-.51a4.338 4.338 0 01-2.472-2.413c-.68-1.671-.522-5.636-.522-7.483 0-1.846-.151-5.817.522-7.482.453-1.11 1.329-1.965 2.472-2.413 1.712-.662 5.775-.51 7.667-.51 1.892 0 5.96-.147 7.666.51a4.338 4.338 0 012.473 2.413c.679 1.671.522 5.636.522 7.482 0 1.847.157 5.817-.522 7.483z" fill="#000"/></g></mask><g mask="url(#a)"><path fill="url(#paint0_linear_7_353)" d="M-6-2.765h39v39H-6z"/></g><defs><linearGradient id="paint0_linear_7_353" x1="-10" y1="45.735" x2="35.5" y2="-8.765" gradientUnits="userSpaceOnUse"><stop stop-color="#002EA6"/><stop offset="1" stop-color="#00A0E3"/></linearGradient><clipPath id="clip0_7_353"><path fill="#fff" transform="translate(0 .235)" d="M0 0h26v29H0z"/></clipPath></defs></svg>