<svg width="30" height="18" fill="none" xmlns="http://www.w3.org/2000/svg"><mask id="a" style="mask-type:alpha" maskUnits="userSpaceOnUse" x="0" y="0" width="30" height="18"><path d="M29.316 1.22c.206-.703 0-1.22-.991-1.22h-3.28c-.836 0-1.22.444-1.426.94 0 0-1.67 4.111-4.032 6.777-.763.771-1.114 1.019-1.532 1.019-.206 0-.523-.248-.523-.951V1.221c0-.844-.234-1.221-.925-1.221H11.45c-.523 0-.835.394-.835.76 0 .798 1.18.984 1.303 3.234v4.882c0 1.069-.19 1.266-.607 1.266-1.114 0-3.82-4.129-5.424-8.854C5.564.371 5.247 0 4.405 0h-3.28C.189 0 0 .444 0 .94c0 .877 1.114 5.236 5.185 10.996C7.897 15.868 11.718 18 15.193 18c2.088 0 2.344-.473 2.344-1.288 0-3.758-.189-4.112.858-4.112.485 0 1.32.248 3.27 2.143C23.891 16.993 24.258 18 25.506 18h3.28c.936 0 1.41-.473 1.136-1.406-.623-1.963-4.84-6.002-5.029-6.272-.484-.63-.345-.911 0-1.474.006-.006 4.01-5.698 4.422-7.627z" fill="#000"/></mask><g mask="url(#a)"><path fill="url(#paint0_linear_35_845)" d="M-5-12h39v39H-5z"/></g><defs><linearGradient id="paint0_linear_35_845" x1="-9" y1="36.5" x2="36.5" y2="-18" gradientUnits="userSpaceOnUse"><stop stop-color="#002EA6"/><stop offset="1" stop-color="#00A0E3"/></linearGradient></defs></svg>