<svg width="30" height="18" viewBox="0 0 30 18" fill="none" xmlns="http://www.w3.org/2000/svg">
<mask id="mask0_35_845" style="mask-type:alpha" maskUnits="userSpaceOnUse" x="0" y="0" width="30" height="18">
<path d="M29.3163 1.22062C29.5223 0.5175 29.3163 0 28.325 0H25.0447C24.2093 0 23.825 0.444375 23.619 0.939375C23.619 0.939375 21.9482 5.05125 19.5869 7.7175C18.8239 8.48812 18.473 8.73563 18.0554 8.73563C17.8493 8.73563 17.5318 8.48812 17.5318 7.785V1.22062C17.5318 0.376875 17.2979 0 16.6074 0H11.4503C10.9268 0 10.6149 0.39375 10.6149 0.759375C10.6149 1.55812 11.7956 1.74375 11.9181 3.99375V8.87625C11.9181 9.945 11.7287 10.1419 11.311 10.1419C10.1972 10.1419 7.49058 6.01312 5.88665 1.28813C5.56363 0.37125 5.24619 0 4.40524 0H1.12498C0.189353 0 0 0.444375 0 0.939375C0 1.81687 1.11384 6.17625 5.18493 11.9363C7.89713 15.8681 11.7176 18 15.1928 18C17.2812 18 17.5374 17.5275 17.5374 16.7119C17.5374 12.9544 17.3481 12.6 18.3951 12.6C18.8796 12.6 19.715 12.8475 21.6642 14.7431C23.8919 16.9931 24.2594 18 25.5069 18H28.7872C29.7228 18 30.1962 17.5275 29.9233 16.5938C29.2996 14.6306 25.0837 10.5919 24.8943 10.3219C24.4098 9.69187 24.549 9.41062 24.8943 8.84812C24.8999 8.8425 28.9042 3.15 29.3163 1.22062Z" fill="black"/>
</mask>
<g mask="url(#mask0_35_845)">
<rect x="-5" y="-12" width="39" height="39" fill="url(#paint0_linear_35_845)"/>
</g>
<defs>
<linearGradient id="paint0_linear_35_845" x1="-9" y1="36.5" x2="36.5" y2="-18" gradientUnits="userSpaceOnUse">
<stop stop-color="#002EA6"/>
<stop offset="1" stop-color="#00A0E3"/>
</linearGradient>
</defs>
</svg>
