<svg width="26" height="30" viewBox="0 0 26 30" fill="none" xmlns="http://www.w3.org/2000/svg">
<mask id="mask0_7_353" style="mask-type:alpha" maskUnits="userSpaceOnUse" x="0" y="0" width="26" height="30">
<g clip-path="url(#clip0_7_353)">
<path d="M13.0058 8.22134C9.31472 8.22134 6.33749 11.127 6.33749 14.7293C6.33749 18.3317 9.31472 21.2374 13.0058 21.2374C16.6969 21.2374 19.6741 18.3317 19.6741 14.7293C19.6741 11.127 16.6969 8.22134 13.0058 8.22134ZM13.0058 18.9604C10.6205 18.9604 8.67052 17.0629 8.67052 14.7293C8.67052 12.3958 10.6147 10.4983 13.0058 10.4983C15.3969 10.4983 17.3411 12.3958 17.3411 14.7293C17.3411 17.0629 15.3911 18.9604 13.0058 18.9604ZM21.5022 7.95513C21.5022 8.79907 20.8058 9.4731 19.9469 9.4731C19.0821 9.4731 18.3915 8.79341 18.3915 7.95513C18.3915 7.11685 19.0879 6.43716 19.9469 6.43716C20.8058 6.43716 21.5022 7.11685 21.5022 7.95513ZM25.9187 9.49575C25.8201 7.46235 25.3442 5.66118 23.8178 4.1772C22.2973 2.69321 20.4518 2.22876 18.3683 2.12681C16.221 2.00786 9.78481 2.00786 7.63749 2.12681C5.55981 2.2231 3.71427 2.68755 2.18794 4.17153C0.661596 5.65552 0.191507 7.45669 0.0870422 9.49009C-0.0348328 11.5858 -0.0348328 17.8672 0.0870422 19.9629C0.185703 21.9963 0.661596 23.7975 2.18794 25.2815C3.71427 26.7655 5.55401 27.2299 7.63749 27.3319C9.78481 27.4508 16.221 27.4508 18.3683 27.3319C20.4518 27.2356 22.2973 26.7711 23.8178 25.2815C25.3384 23.7975 25.8143 21.9963 25.9187 19.9629C26.0406 17.8672 26.0406 11.5915 25.9187 9.49575ZM23.1446 22.2116C22.692 23.3217 21.8156 24.177 20.6723 24.6245C18.9603 25.2872 14.8978 25.1342 13.0058 25.1342C11.1138 25.1342 7.04552 25.2815 5.33927 24.6245C4.20177 24.1827 3.32544 23.3274 2.86695 22.2116C2.18794 20.5407 2.34463 16.5758 2.34463 14.7293C2.34463 12.8829 2.19374 8.91235 2.86695 7.24712C3.31963 6.13696 4.19597 5.28169 5.33927 4.83423C7.05133 4.17153 11.1138 4.32446 13.0058 4.32446C14.8978 4.32446 18.9661 4.1772 20.6723 4.83423C21.8098 5.27603 22.6861 6.1313 23.1446 7.24712C23.8237 8.91802 23.667 12.8829 23.667 14.7293C23.667 16.5758 23.8237 20.5463 23.1446 22.2116Z" fill="black"/>
</g>
</mask>
<g mask="url(#mask0_7_353)">
<rect x="-6" y="-2.76514" width="39" height="39" fill="url(#paint0_linear_7_353)"/>
</g>
<defs>
<linearGradient id="paint0_linear_7_353" x1="-10" y1="45.7349" x2="35.5" y2="-8.76514" gradientUnits="userSpaceOnUse">
<stop stop-color="#002EA6"/>
<stop offset="1" stop-color="#00A0E3"/>
</linearGradient>
<clipPath id="clip0_7_353">
<rect width="26" height="29" fill="white" transform="translate(0 0.234863)"/>
</clipPath>
</defs>
</svg>
